<?xml version="1.0" encoding="UTF-8" standalone="no"?>
<!-- Created with Inkscape (http://www.inkscape.org/) -->

<svg
   xmlns:dc="http://purl.org/dc/elements/1.1/"
   xmlns:cc="http://creativecommons.org/ns#"
   xmlns:rdf="http://www.w3.org/1999/02/22-rdf-syntax-ns#"
   xmlns:svg="http://www.w3.org/2000/svg"
   xmlns="http://www.w3.org/2000/svg"
   xmlns:xlink="http://www.w3.org/1999/xlink"
   xmlns:sodipodi="http://sodipodi.sourceforge.net/DTD/sodipodi-0.dtd"
   xmlns:inkscape="http://www.inkscape.org/namespaces/inkscape"
   width="400"
   height="400.01282"
   id="svg2"
   version="1.1"
   inkscape:version="0.48.4 r9939"
   sodipodi:docname="AlphaSymbol.svg"
   inkscape:export-filename="/home/matmax/my/ablage/AlphaSymbol.png"
   inkscape:export-xdpi="11.24964"
   inkscape:export-ydpi="11.24964">
  <defs
     id="defs4">
    <linearGradient
       id="linearGradient4197">
      <stop
         style="stop-color:#000000;stop-opacity:0;"
         offset="0"
         id="stop4199" />
      <stop
         id="stop4205"
         offset="0.79792744"
         style="stop-color:#000000;stop-opacity:0;" />
      <stop
         style="stop-color:#000000;stop-opacity:0.07843138;"
         offset="1"
         id="stop4207" />
    </linearGradient>
    <linearGradient
       id="linearGradient3889">
      <stop
         style="stop-color:#000000;stop-opacity:1;"
         offset="0"
         id="stop3891" />
      <stop
         style="stop-color:#000000;stop-opacity:0"
         offset="1"
         id="stop3893" />
    </linearGradient>
    <linearGradient
       inkscape:collect="always"
       xlink:href="#linearGradient3889"
       id="linearGradient3895"
       x1="300"
       y1="482.36218"
       x2="300"
       y2="152.36218"
       gradientUnits="userSpaceOnUse" />
    <radialGradient
       inkscape:collect="always"
       xlink:href="#linearGradient4197"
       id="radialGradient4203"
       cx="200"
       cy="200"
       fx="200"
       fy="200"
       r="200"
       gradientUnits="userSpaceOnUse" />
  </defs>
  <sodipodi:namedview
     id="base"
     pagecolor="#ffffff"
     bordercolor="#666666"
     borderopacity="1.0"
     inkscape:pageopacity="0.0"
     inkscape:pageshadow="2"
     inkscape:zoom="0.7"
     inkscape:cx="6.560646"
     inkscape:cy="251.37093"
     inkscape:document-units="px"
     inkscape:current-layer="layer1"
     showgrid="true"
     inkscape:snap-global="true"
     inkscape:snap-bbox="true"
     inkscape:window-width="1280"
     inkscape:window-height="992"
     inkscape:window-x="0"
     inkscape:window-y="0"
     inkscape:window-maximized="1"
     fit-margin-top="0"
     fit-margin-left="0"
     fit-margin-right="0"
     fit-margin-bottom="0">
    <inkscape:grid
       type="xygrid"
       id="grid3757"
       empspacing="5"
       visible="true"
       enabled="true"
       snapvisiblegridlinesonly="true"
       originx="-100px"
       originy="-549.98718px" />
  </sodipodi:namedview>
  <metadata
     id="metadata7">
    <rdf:RDF>
      <cc:Work
         rdf:about="">
        <dc:format>image/svg+xml</dc:format>
        <dc:type
           rdf:resource="http://purl.org/dc/dcmitype/StillImage" />
        <dc:title></dc:title>
      </cc:Work>
    </rdf:RDF>
  </metadata>
  <g
     inkscape:label="Ebene 1"
     inkscape:groupmode="layer"
     id="layer1"
     transform="translate(-100,-102.36218)">
    <rect
       style="color:#000000;fill:#000000;fill-opacity:1;fill-rule:nonzero;stroke:none;stroke-width:4;marker:none;visibility:visible;display:inline;overflow:visible;enable-background:accumulate"
       id="rect4181"
       width="400"
       height="400"
       x="0"
       y="-2.6171874e-06"
       transform="translate(100,102.36218)" />
    <rect
       style="color:#000000;fill:#ababab;fill-opacity:1;fill-rule:nonzero;stroke:none;stroke-width:4;marker:none;visibility:visible;display:inline;overflow:visible;enable-background:accumulate"
       id="rect3759"
       width="50"
       height="50"
       x="100"
       y="102.36218" />
    <rect
       y="102.36218"
       x="150"
       height="50"
       width="50"
       id="rect3761"
       style="color:#000000;fill:#ffffff;fill-opacity:1;fill-rule:nonzero;stroke:none;stroke-width:4;marker:none;visibility:visible;display:inline;overflow:visible;enable-background:accumulate" />
    <use
       x="0"
       y="0"
       xlink:href="#rect3761"
       id="use4036"
       transform="translate(-50,50)"
       width="744.09448"
       height="1052.3622" />
    <use
       x="0"
       y="0"
       xlink:href="#rect3759"
       id="use4040"
       transform="translate(50,50)"
       width="744.09448"
       height="1052.3622" />
    <use
       x="0"
       y="0"
       xlink:href="#rect3759"
       id="use4042"
       transform="translate(100,0)"
       width="744.09448"
       height="1052.3622" />
    <use
       x="0"
       y="0"
       xlink:href="#rect3761"
       id="use4044"
       transform="translate(100,0)"
       width="744.09448"
       height="1052.3622" />
    <use
       x="0"
       y="0"
       xlink:href="#use4036"
       id="use4046"
       transform="translate(100,0)"
       width="744.09448"
       height="1052.3622" />
    <use
       x="0"
       y="0"
       xlink:href="#use4040"
       id="use4048"
       transform="translate(100,0)"
       width="744.09448"
       height="1052.3622" />
    <use
       x="0"
       y="0"
       xlink:href="#rect3759"
       id="use4050"
       transform="translate(0,100)"
       width="744.09448"
       height="1052.3622" />
    <use
       x="0"
       y="0"
       xlink:href="#rect3761"
       id="use4052"
       transform="translate(0,100)"
       width="744.09448"
       height="1052.3622" />
    <use
       x="0"
       y="0"
       xlink:href="#use4036"
       id="use4054"
       transform="translate(0,100)"
       width="744.09448"
       height="1052.3622" />
    <use
       x="0"
       y="0"
       xlink:href="#use4040"
       id="use4056"
       transform="translate(0,100)"
       width="744.09448"
       height="1052.3622" />
    <use
       x="0"
       y="0"
       xlink:href="#use4042"
       id="use4058"
       transform="translate(0,100)"
       width="744.09448"
       height="1052.3622" />
    <use
       x="0"
       y="0"
       xlink:href="#use4044"
       id="use4060"
       transform="translate(0,100)"
       width="744.09448"
       height="1052.3622" />
    <use
       x="0"
       y="0"
       xlink:href="#use4046"
       id="use4062"
       transform="translate(0,100)"
       width="744.09448"
       height="1052.3622" />
    <use
       x="0"
       y="0"
       xlink:href="#use4048"
       id="use4064"
       transform="translate(0,100)"
       width="744.09448"
       height="1052.3622" />
    <use
       x="0"
       y="0"
       xlink:href="#rect3759"
       id="use4066"
       transform="translate(0,200)"
       width="744.09448"
       height="1052.3622" />
    <use
       x="0"
       y="0"
       xlink:href="#rect3761"
       id="use4068"
       transform="translate(0,200)"
       width="744.09448"
       height="1052.3622" />
    <use
       x="0"
       y="0"
       xlink:href="#use4036"
       id="use4070"
       transform="translate(0,200)"
       width="744.09448"
       height="1052.3622" />
    <use
       x="0"
       y="0"
       xlink:href="#use4040"
       id="use4072"
       transform="translate(0,200)"
       width="744.09448"
       height="1052.3622" />
    <use
       x="0"
       y="0"
       xlink:href="#use4042"
       id="use4074"
       transform="translate(0,200)"
       width="744.09448"
       height="1052.3622" />
    <use
       x="0"
       y="0"
       xlink:href="#use4044"
       id="use4076"
       transform="translate(0,200)"
       width="744.09448"
       height="1052.3622" />
    <use
       x="0"
       y="0"
       xlink:href="#use4046"
       id="use4078"
       transform="translate(0,200)"
       width="744.09448"
       height="1052.3622" />
    <use
       x="0"
       y="0"
       xlink:href="#use4048"
       id="use4080"
       transform="translate(0,200)"
       width="744.09448"
       height="1052.3622" />
    <use
       x="0"
       y="0"
       xlink:href="#use4050"
       id="use4082"
       transform="translate(0,200)"
       width="744.09448"
       height="1052.3622" />
    <use
       x="0"
       y="0"
       xlink:href="#use4052"
       id="use4084"
       transform="translate(0,200)"
       width="744.09448"
       height="1052.3622" />
    <use
       x="0"
       y="0"
       xlink:href="#use4054"
       id="use4086"
       transform="translate(0,200)"
       width="744.09448"
       height="1052.3622" />
    <use
       x="0"
       y="0"
       xlink:href="#use4056"
       id="use4088"
       transform="translate(0,200)"
       width="744.09448"
       height="1052.3622" />
    <use
       x="0"
       y="0"
       xlink:href="#use4058"
       id="use4090"
       transform="translate(0,200)"
       width="744.09448"
       height="1052.3622" />
    <use
       x="0"
       y="0"
       xlink:href="#use4060"
       id="use4092"
       transform="translate(0,200)"
       width="744.09448"
       height="1052.3622" />
    <use
       x="0"
       y="0"
       xlink:href="#use4062"
       id="use4094"
       transform="translate(0,200)"
       width="744.09448"
       height="1052.3622" />
    <use
       x="0"
       y="0"
       xlink:href="#use4064"
       id="use4096"
       transform="translate(0,200)"
       width="744.09448"
       height="1052.3622" />
    <use
       x="0"
       y="0"
       xlink:href="#rect3759"
       id="use4098"
       transform="translate(200,0)"
       width="744.09448"
       height="1052.3622" />
    <use
       x="0"
       y="0"
       xlink:href="#rect3761"
       id="use4100"
       transform="translate(200,0)"
       width="744.09448"
       height="1052.3622" />
    <use
       x="0"
       y="0"
       xlink:href="#use4036"
       id="use4102"
       transform="translate(200,0)"
       width="744.09448"
       height="1052.3622" />
    <use
       x="0"
       y="0"
       xlink:href="#use4040"
       id="use4104"
       transform="translate(200,0)"
       width="744.09448"
       height="1052.3622" />
    <use
       x="0"
       y="0"
       xlink:href="#use4042"
       id="use4106"
       transform="translate(200,0)"
       width="744.09448"
       height="1052.3622" />
    <use
       x="0"
       y="0"
       xlink:href="#use4044"
       id="use4108"
       transform="translate(200,0)"
       width="744.09448"
       height="1052.3622" />
    <use
       x="0"
       y="0"
       xlink:href="#use4046"
       id="use4110"
       transform="translate(200,0)"
       width="744.09448"
       height="1052.3622" />
    <use
       x="0"
       y="0"
       xlink:href="#use4048"
       id="use4112"
       transform="translate(200,0)"
       width="744.09448"
       height="1052.3622" />
    <use
       x="0"
       y="0"
       xlink:href="#use4050"
       id="use4114"
       transform="translate(200,0)"
       width="744.09448"
       height="1052.3622" />
    <use
       x="0"
       y="0"
       xlink:href="#use4052"
       id="use4116"
       transform="translate(200,0)"
       width="744.09448"
       height="1052.3622" />
    <use
       x="0"
       y="0"
       xlink:href="#use4054"
       id="use4118"
       transform="translate(200,0)"
       width="744.09448"
       height="1052.3622" />
    <use
       x="0"
       y="0"
       xlink:href="#use4056"
       id="use4120"
       transform="translate(200,0)"
       width="744.09448"
       height="1052.3622" />
    <use
       x="0"
       y="0"
       xlink:href="#use4058"
       id="use4122"
       transform="translate(200,0)"
       width="744.09448"
       height="1052.3622" />
    <use
       x="0"
       y="0"
       xlink:href="#use4060"
       id="use4124"
       transform="translate(200,0)"
       width="744.09448"
       height="1052.3622" />
    <use
       x="0"
       y="0"
       xlink:href="#use4062"
       id="use4126"
       transform="translate(200,0)"
       width="744.09448"
       height="1052.3622" />
    <use
       x="0"
       y="0"
       xlink:href="#use4064"
       id="use4128"
       transform="translate(200,0)"
       width="744.09448"
       height="1052.3622" />
    <use
       x="0"
       y="0"
       xlink:href="#use4066"
       id="use4130"
       transform="translate(200,0)"
       width="744.09448"
       height="1052.3622" />
    <use
       x="0"
       y="0"
       xlink:href="#use4068"
       id="use4132"
       transform="translate(200,0)"
       width="744.09448"
       height="1052.3622" />
    <use
       x="0"
       y="0"
       xlink:href="#use4070"
       id="use4134"
       transform="translate(200,0)"
       width="744.09448"
       height="1052.3622" />
    <use
       x="0"
       y="0"
       xlink:href="#use4072"
       id="use4136"
       transform="translate(200,0)"
       width="744.09448"
       height="1052.3622" />
    <use
       x="0"
       y="0"
       xlink:href="#use4074"
       id="use4138"
       transform="translate(200,0)"
       width="744.09448"
       height="1052.3622" />
    <use
       x="0"
       y="0"
       xlink:href="#use4076"
       id="use4140"
       transform="translate(200,0)"
       width="744.09448"
       height="1052.3622" />
    <use
       x="0"
       y="0"
       xlink:href="#use4078"
       id="use4142"
       transform="translate(200,0)"
       width="744.09448"
       height="1052.3622" />
    <use
       x="0"
       y="0"
       xlink:href="#use4080"
       id="use4144"
       transform="translate(200,0)"
       width="744.09448"
       height="1052.3622" />
    <use
       x="0"
       y="0"
       xlink:href="#use4082"
       id="use4146"
       transform="translate(200,0)"
       width="744.09448"
       height="1052.3622" />
    <use
       x="0"
       y="0"
       xlink:href="#use4084"
       id="use4148"
       transform="translate(200,0)"
       width="744.09448"
       height="1052.3622" />
    <use
       x="0"
       y="0"
       xlink:href="#use4086"
       id="use4150"
       transform="translate(200,0)"
       width="744.09448"
       height="1052.3622" />
    <use
       x="0"
       y="0"
       xlink:href="#use4088"
       id="use4152"
       transform="translate(200,0)"
       width="744.09448"
       height="1052.3622" />
    <use
       x="0"
       y="0"
       xlink:href="#use4090"
       id="use4154"
       transform="translate(200,0)"
       width="744.09448"
       height="1052.3622" />
    <use
       x="0"
       y="0"
       xlink:href="#use4092"
       id="use4156"
       transform="translate(200,0)"
       width="744.09448"
       height="1052.3622" />
    <use
       x="0"
       y="0"
       xlink:href="#use4094"
       id="use4158"
       transform="translate(200,0)"
       width="744.09448"
       height="1052.3622" />
    <use
       x="0"
       y="0"
       xlink:href="#use4096"
       id="use4160"
       transform="translate(200,0)"
       width="744.09448"
       height="1052.3622" />
    <path
       sodipodi:type="arc"
       style="color:#000000;fill:url(#linearGradient3895);fill-opacity:1;fill-rule:nonzero;stroke:none;stroke-width:4;marker:none;visibility:visible;display:inline;overflow:visible;enable-background:accumulate"
       id="path3887"
       sodipodi:cx="300"
       sodipodi:cy="302.36218"
       sodipodi:rx="200"
       sodipodi:ry="200"
       d="m 500,302.36218 c 0,110.45695 -89.54305,200 -200,200 -110.45695,0 -200,-89.54305 -200,-200 0,-110.45695 89.54305,-200 200,-200 110.45695,0 200,89.54305 200,200 z" />
    <path
       style="color:#000000;fill:#ffffff;fill-opacity:1;fill-rule:nonzero;stroke:none;stroke-width:4;marker:none;visibility:visible;display:inline;overflow:visible;enable-background:accumulate"
       d="m 100,102.375 0,200 c 0,-110.45695 89.54305,-200 200,-200 l -200,0 z m 200,0 c 110.45695,0 200,89.54305 200,200 l 0,-200 -200,0 z m 200,200 c 0,110.45695 -89.54305,200 -200,200 l 200,0 0,-200 z m -200,200 c -110.45695,0 -200,-89.54305 -200,-200 l 0,200 200,0 z"
       id="rect4033"
       inkscape:connector-curvature="0" />
    <path
       sodipodi:type="arc"
       style="color:#000000;fill:url(#radialGradient4203);fill-opacity:1;fill-rule:nonzero;stroke:none;stroke-width:2;marker:none;visibility:visible;display:inline;overflow:visible;enable-background:accumulate;stroke-opacity:0.10596026000000000;stroke-miterlimit:4;stroke-dasharray:none"
       id="path4195"
       sodipodi:cx="200"
       sodipodi:cy="200"
       sodipodi:rx="200"
       sodipodi:ry="200"
       d="M 400,200 C 400,310.45695 310.45695,400 200,400 89.54305,400 0,310.45695 0,200 0,89.54305 89.54305,0 200,0 310.45695,0 400,89.54305 400,200 z"
       transform="translate(100,102.36218)" />
  </g>
</svg>
