<svg
   xmlns="http://www.w3.org/2000/svg"
   xmlns:xlink="http://www.w3.org/1999/xlink"
   width="400"
   height="400.01282">
  <defs>
	<pattern id="alphaPattern" patternUnits="userSpaceOnUse"
	width="100" height="100" x="0" y="0">
		<rect x="0" y="0" width="50" height="50" style="fill: #fff" />
		<rect x="50" y="0" width="50" height="50" style="fill: #999" />
		<rect x="0" y="50" width="50" height="50" style="fill: #999" />
		<rect x="50" y="50" width="50" height="50" style="fill: #fff" />
	</pattern>

    <radialGradient cx="200" cy="200" r="200" fx="200" fy="200"
       id="radialGradient4203-1"
       xlink:href="#linearGradient4197-7" 
       gradientUnits="userSpaceOnUse" />
    <linearGradient id="linearGradient4197-7"> 
      <stop style="stop-color:#000000;stop-opacity:0" offset="0" />
      <stop style="stop-color:#000000;stop-opacity:0" offset="0.79792744" />
      <stop style="stop-color:#000000;stop-opacity:0.07843138" offset="1" />
    </linearGradient>
    <radialGradient cx="200" cy="200" r="200" fx="200" fy="200"
       id="radialGradient3819" 
       xlink:href="#linearGradient4197-7"
       gradientUnits="userSpaceOnUse" />
    <linearGradient x1="300" y1="482.36218" x2="300" y2="152.36218"
       id="linearGradient3895-0"
       xlink:href="#linearGradient3889-4" 
       gradientUnits="userSpaceOnUse" />
    <linearGradient
       id="linearGradient3889-4"> 
      <stop style="stop-color:#000;stop-opacity:1" offset="0" />
      <stop style="stop-color:#000;stop-opacity:0" offset="1" />
    </linearGradient>
    <linearGradient x1="300" y1="482.36218" x2="300" y2="152.36218"
       id="linearGradient3855" 
       xlink:href="#linearGradient3889-4"
       gradientUnits="userSpaceOnUse" />
    <mask
       id="mask3913">
      <path
         d="m 400,200 a 200,200 0 1 1 -400,0 200,200 0 1 1 400,0 z"
         transform="translate(100.00004,102.36217)"
         id="path3915"
         style="fill:#fff;" />
    </mask>
  </defs>

  <g
     id="layer2">
    <path
       d="m 400,200 a 200,200 0 1 1 -400,0 200,200 0 1 1 400,0 z"
       transform="translate(0,-2.6171875e-6)"
       style="color:#000000;fill:url(#alphaPattern);" />
    <path
       d="m 400,200 a 200,200 0 1 1 -400,0 200,200 0 1 1 400,0 z"
       transform="translate(0,-2.6171875e-6)"
       id="path4195"
       style="color:#000000;fill:url(#radialGradient3819);" />
    <path
       d="m 500,302.36218 a 200,200 0 1 1 -400,0 200,200 0 1 1 400,0 z"
       transform="translate(-100,-102.36219)"
       id="path3887"
       style="color:#000000;fill:url(#linearGradient3855);" />
  </g>
</svg>
