<svg xmlns="http://www.w3.org/2000/svg"
   width="442.57144"
   height="442.57144">
  <defs>
    <linearGradient id="linearGradient3776">
      <stop style="stop-color:#000000;stop-opacity:0" offset="0" />
      <stop style="stop-color:#000000;stop-opacity:0" offset="0.8" />
      <stop style="stop-color:#000000;stop-opacity:0.11764706" offset="1" />
    </linearGradient>
    <radialGradient
       cx="190.71428"
       cy="217.57144"
       r="110.71429"
       fx="190.71428"
       fy="217.57144"
       id="radialGradient3782"
       xlink:href="#linearGradient3776"
       gradientUnits="userSpaceOnUse" />
  </defs>

  <g transform="translate(-147.99998,-108.93361)">
    <path
       d="m 301.42857,217.57144 a 110.71429,110.71429 0 1 1 -221.428578,0 110.71429,110.71429 0 1 1 221.428578,0 z"
       transform="matrix(1.4354949,0,0,1.4354949,97.64835,17.95879)"
       style="fill:#21dfd9;" />
    <path
       d="m 568.78093,285.19673 c -0.34759,-6.36327 -4.21303,-13.95121 -11.78061,-26.86512 -8.77959,-14.98237 -10.12754,-18.20198 -10.04522,-24.22868 0.0784,-5.77081 1.74648,-10.73316 12.34795,-37.07721 4.4237,-10.99287 8.43031,-21.93283 8.94392,-24.29542 3.31967,-15.27157 -11.01168,-29.73097 -32.4384,-32.672 -8.0347,-1.10285 -14.63715,0.34788 -32.57188,7.10841 -29.4378,11.09663 -30.73763,11.14075 -64.70992,2.97018 -34.1395,-8.2108 -47.61298,-10.27884 -67.07939,-10.27884 -18.95254,-5e-5 -34.05438,2.26315 -61.80648,9.21091 -37.87366,9.48156 -41.52954,9.34953 -71.78496,-2.3361 -16.60059,-6.41159 -22.85249,-7.76585 -30.80313,-6.67456 -16.78296,2.30366 -29.71907,11.78866 -32.47175,23.76145 -1.45228,6.3165 -0.63279,9.09945 10.44569,34.84123 7.7465,17.99969 10.60162,27.54023 10.61256,35.54207 0.0126,8.72019 -2.37071,13.98691 -11.04641,24.49565 -14.07766,17.05239 -14.08209,21.96219 -0.10002,43.8519 8.43403,13.2042 11.14652,20.01119 11.14652,27.93306 4e-5,7.78725 -2.43922,13.06298 -11.14652,23.79484 -14.2183,17.52428 -14.10808,21.66631 1.6019,48.72433 8.57474,14.7686 9.54462,17.10835 9.54462,23.12737 -0.001,5.64753 -1.90369,11.55118 -11.98084,36.94372 -4.45731,11.23159 -8.52763,22.34856 -9.04404,24.72927 -3.3206,15.31028 10.99052,29.76145 32.43839,32.70537 8.07606,1.10854 14.49203,-0.27424 33.53969,-7.37539 18.5086,-6.9 24.83605,-8.57044 32.40502,-8.51008 6.58998,0.0526 11.87485,1.045 35.1416,6.54108 31.67114,7.48124 45.51506,9.57801 63.30825,9.57801 18.35138,0 29.21846,-1.69871 64.70993,-10.04523 36.48976,-8.58137 38.62637,-8.48749 68.88152,3.17042 16.59386,6.39398 22.82885,7.73112 30.76974,6.64119 17.21895,-2.36346 29.74445,-11.73436 32.50515,-24.32879 1.23905,-5.65273 -0.33268,-11.13742 -8.07623,-28.26679 -11.91517,-26.35693 -15.26924,-39.32439 -12.6483,-48.65758 1.68805,-6.01159 3.34699,-8.63574 12.2812,-19.58985 12.4348,-15.24621 12.03534,-21.42315 -2.76995,-43.45143 -7.23424,-10.76375 -9.98936,-17.57416 -10.14533,-25.16312 -0.19245,-9.35732 1.08056,-12.02852 12.38131,-26.09755 6.12721,-7.62832 9.33205,-12.66867 9.44451,-18.52192 0.007,-0.41461 0.0232,-0.81058 0,-1.2348 z m -38.4455,45.0867 c 0,87.77449 -71.14693,158.95479 -158.92142,158.95479 -87.7745,0 -158.92142,-71.1803 -158.92142,-158.95479 0,-87.77449 71.14692,-158.92142 158.92142,-158.92142 87.77449,0 158.92142,71.14693 158.92142,158.92142 z"
       style="fill:#525252;" />
    <path
       d="m 301.42857,217.57144 a 110.71429,110.71429 0 1 1 -221.428578,0 110.71429,110.71429 0 1 1 221.428578,0 z"
       transform="matrix(1.4354949,0,0,1.4354949,97.64835,17.95879)"
       style="fill:url(#radialGradient3782);" />
  </g>
</svg>
