<svg id="li_r_svg" class="symbolSVG" onclick="bokeh.clickRadius()"
				viewBox="0 0 442.57144 442.57144"
			   xmlns="http://www.w3.org/2000/svg"
			   xmlns:xlink="http://www.w3.org/1999/xlink">
  <defs>
    <linearGradient id="linearGradient3767">
      <stop style="stop-color:#000000;stop-opacity:0" offset="0" />
      <stop style="stop-color:#000000;stop-opacity:0" offset="0.80310881" />
      <stop style="stop-color:#000000;stop-opacity:0.07843138" offset="1" />
    </linearGradient>
    <linearGradient id="linearGradient3755">
      <stop style="stop-color:#fe0000;stop-opacity:1" offset="0" />
      <stop style="stop-color:#7f7f7f;stop-opacity:1" offset="1" />
    </linearGradient>
    <radialGradient cx="369.28571" cy="330.21933" r="220.28572" fx="369.28571" fy="330.21933"
       id="radialGradient3765"
       xlink:href="#linearGradient3767"
       gradientUnits="userSpaceOnUse" />
  </defs>

  <g transform="translate(-147.99998,-108.93361)">
    <path d="m 588.57143,330.21933 a 219.28572,219.28572 0 1 1 -438.57145,0 219.28572,219.28572 0 1 1 438.57145,0 z"
       transform="matrix(0.92964828,0,0,0.92964828,26.809717,23.231498)"
       style="color:#000000;fill:#e6e6e6;" />
    <path d="m 588.57143,330.21933 a 219.28572,219.28572 0 1 1 -438.57145,0 219.28572,219.28572 0 1 1 438.57145,0 z"
       transform="matrix(0.92964828,0,0,0.92964828,26.809717,23.231498)"
       style="color:#000000;fill:url(#radialGradient3765);" />
    <path d="m 370.91237,330.50107 201.86647,0"
       style="fill:none;stroke:#000000;stroke-width:18.59296417;stroke-linecap:round;stroke-linejoin:round;stroke-miterlimit:4;stroke-opacity:1;stroke-dasharray:none" />
    <path d="m 244.28571,222.57144 a 20.714285,20.714285 0 1 1 -41.42857,0 20.714285,20.714285 0 1 1 41.42857,0 z"
       transform="matrix(0.92964828,0,0,0.92964828,164.39764,123.58792)"
       style="fill:#1da9ff;" />
    <path d="m 244.28571,222.57144 a 20.714285,20.714285 0 1 1 -41.42857,0 20.714285,20.714285 0 1 1 41.42857,0 z"
       transform="matrix(0.92964828,0,0,0.92964828,363.21466,123.58792)"
       style="fill:#1da9ff;" />
  </g>
</svg>
