<svg
   xmlns="http://www.w3.org/2000/svg"
   xmlns:xlink="http://www.w3.org/1999/xlink"
   width="442.57144"
   height="442.57144">

  <g transform="translate(-147.99998,-108.93361)">
    <path
       d="m 178,202.07144 a 71.5,71.5 0 1 1 -143,0 71.5,71.5 0 1 1 143,0 z"
       transform="matrix(1.1500013,1.1500013,-1.1500013,1.1500013,425.18593,-79.393668)"
       id="path3829"
       style="color:#000000;fill:none;stroke:#000000;stroke-width:15;stroke-linecap:round;stroke-linejoin:round;" />
    <path
       d="m 142.25,140.15063 a 71.5,71.5 0 0 1 0,123.84163"
       transform="matrix(1.1500013,1.1500013,-1.1500013,1.1500013,474.636,-29.943615)"
       id="path3831"
       style="color:#000000;fill:none;stroke:#000000;stroke-width:7;stroke-linecap:round;stroke-linejoin:round;" />
    <path
       d="m 157.05813,151.5133 a 71.5,71.5 0 0 1 0,101.11628"
       transform="matrix(1.1500013,1.1500013,-1.1500013,1.1500013,512.58604,8.006431)"
       id="path3833"
       style="color:#000000;fill:none;stroke:#000000;stroke-width:6;stroke-linecap:round;stroke-linejoin:round;" />
    <path
       d="m 168.42082,166.32144 a 71.5,71.5 0 0 1 0,71.5"
       transform="matrix(1.1500013,1.1500013,-1.1500013,1.1500013,549.38609,44.806468)"
       id="path3835"
       style="color:#000000;fill:none;stroke:#000000;stroke-width:5;stroke-linecap:round;stroke-linejoin:round;" />
  </g>
</svg>
